<svg width="17" height="17" viewBox="0 0 17 17" fill="none" xmlns="http://www.w3.org/2000/svg">
<path fill-rule="evenodd" clip-rule="evenodd" d="M6.31712 16.1504C6.31712 15.9502 6.31005 15.4206 6.30602 14.7171C4.02029 15.2261 3.53802 13.5874 3.53802 13.5874C3.16422 12.614 2.62545 12.3548 2.62545 12.3548C1.87935 11.8319 2.68195 11.8428 2.68195 11.8428C3.50675 11.9022 3.94059 12.7112 3.94059 12.7112C4.67357 13.9986 5.8636 13.6273 6.33225 13.4116C6.40691 12.8669 6.61929 12.4955 6.85387 12.285C5.02922 12.0724 3.11074 11.3493 3.11074 8.12065C3.11074 7.20099 3.43108 6.44892 3.95673 5.85977C3.87248 5.64667 3.58998 4.79011 4.03744 3.62992C4.03744 3.62992 4.72755 3.40337 6.29694 4.49372C6.95224 4.307 7.65546 4.21286 8.35465 4.20976C9.05232 4.21286 9.75504 4.307 10.4119 4.49372C11.9802 3.40337 12.6693 3.62992 12.6693 3.62992C13.1178 4.78959 12.8358 5.64615 12.7511 5.85977C13.2777 6.44892 13.5955 7.20099 13.5955 8.12065C13.5955 11.3576 11.674 12.0698 9.84332 12.2783C10.1389 12.5385 10.4013 13.0526 10.4013 13.8388C10.4013 14.9654 10.3907 15.8742 10.3907 16.1504C10.3907 16.3759 10.539 16.6376 10.9562 16.5554C14.2185 15.4392 16.5709 12.2829 16.5709 8.56187C16.5709 3.9082 12.8913 0.135925 8.35313 0.135925C3.81548 0.135925 0.135918 3.9082 0.135918 8.56187C0.136422 12.284 2.49076 15.4423 5.75615 16.5564C6.16679 16.6335 6.31712 16.3733 6.31712 16.1504Z" fill="white"/>
</svg>
