<svg width="19" height="15" viewBox="0 0 19 15" fill="none" xmlns="http://www.w3.org/2000/svg">
<path d="M18.3494 1.75773C17.6857 2.05266 16.9729 2.25172 16.2235 2.34025C16.9876 1.88236 17.5746 1.15717 17.8515 0.29326C17.1359 0.716756 16.3442 1.02578 15.5011 1.191C14.8256 0.472019 13.8635 0.022583 12.7983 0.022583C10.7541 0.022583 9.09793 1.67935 9.09793 3.72352C9.09793 4.01337 9.13007 4.29646 9.19323 4.56713C6.1171 4.41262 3.39004 2.93912 1.5641 0.699839C1.24605 1.24683 1.06334 1.88236 1.06334 2.56074C1.06334 3.84533 1.71691 4.97766 2.7094 5.64194C2.10319 5.62221 1.53252 5.45642 1.03346 5.17897C1.03289 5.1942 1.03289 5.21055 1.03289 5.22521C1.03289 7.01901 2.30846 8.51506 4.00188 8.8551C3.69173 8.93912 3.36466 8.9848 3.02688 8.9848C2.78778 8.9848 2.55658 8.96168 2.33101 8.91882C2.80131 10.3884 4.16879 11.4587 5.78778 11.4891C4.5218 12.4816 2.92594 13.0743 1.19191 13.0743C0.893043 13.0743 0.598118 13.0568 0.308832 13.0224C1.94643 14.0713 3.89191 14.6842 5.98233 14.6842C12.7898 14.6842 16.5133 9.04457 16.5133 4.15322C16.5133 3.99307 16.5088 3.83292 16.5021 3.6739C17.2256 3.15228 17.8526 2.50097 18.3494 1.75773Z" fill="white"/>
</svg>
